<svg xmlns="http://www.w3.org/2000/svg" width="192" height="192" viewBox="0 0 192 192">
<g>
<path d="M 106.87 111.82 C103.73,114.90 103.34,115.00 95.01,115.00 L 86.41 115.00 L 82.90 111.25 C75.06,102.86 74.30,95.52 80.51,88.26 C83.81,84.41 83.81,84.40 81.93,81.95 C80.89,80.60 80.03,78.71 80.02,77.75 C79.99,75.09 87.89,75.34 91.41,78.11 C94.02,80.16 94.16,80.17 96.11,78.40 C97.84,76.84 98.25,76.79 99.05,78.04 C99.55,78.84 99.98,80.25 99.98,81.17 C99.99,82.18 101.11,83.08 102.80,83.46 C108.16,84.63 114.00,92.44 114.00,98.43 C114.00,101.73 110.54,108.24 106.87,111.82 ZM 86.45 111.19 C86.99,111.57 90.90,111.89 95.15,111.90 C102.67,111.91 102.95,111.83 105.83,108.54 C107.46,106.69 109.35,103.48 110.03,101.41 C111.10,98.18 111.03,97.23 109.53,94.58 C108.58,92.88 106.28,90.23 104.43,88.68 C101.07,85.87 101.04,85.86 98.01,87.65 C95.50,89.13 94.61,89.24 92.99,88.23 C83.53,82.32 75.36,96.91 82.65,106.70 C84.21,108.79 85.92,110.81 86.45,111.19 ZM 86.50 83.00 C87.31,84.31 89.71,84.28 90.53,82.96 C90.88,82.38 90.63,81.26 89.96,80.46 C88.58,78.79 85.41,78.52 84.51,79.99 C84.14,80.58 84.59,80.71 85.61,80.32 C86.78,79.87 87.10,80.04 86.61,80.83 C86.21,81.47 86.16,82.45 86.50,83.00 Z" fill="rgb(68,41,125)"/>
<path d="M 86.45 111.19 C85.92,110.81 84.21,108.79 82.65,106.70 C75.36,96.91 83.53,82.32 92.99,88.23 C94.20,88.98 95.00,89.11 96.37,88.52 C93.48,90.54 90.78,94.10 91.14,95.69 C91.25,96.13 91.00,97.66 90.60,99.08 C90.08,100.92 90.49,102.71 92.03,105.33 C93.22,107.35 94.60,109.00 95.10,109.00 C95.59,109.00 96.00,109.68 96.00,110.50 C96.00,111.25 96.54,111.70 97.73,111.89 C96.97,111.90 96.12,111.90 95.15,111.90 C90.90,111.89 86.99,111.57 86.45,111.19 ZM 102.68 87.26 C103.16,87.61 103.72,88.08 104.43,88.68 C105.93,89.94 107.73,91.92 108.86,93.53 C107.88,92.68 107.00,92.95 107.00,94.50 C107.00,95.32 106.55,96.00 106.00,96.00 C105.45,96.00 105.00,95.25 105.00,94.33 C105.00,93.41 104.26,91.83 103.35,90.83 C102.07,89.42 102.00,89.00 103.06,89.00 C104.14,89.00 104.10,88.67 102.87,87.44 C102.81,87.38 102.74,87.32 102.68,87.26 ZM 110.60 96.94 C110.93,98.19 110.72,99.33 110.03,101.41 C109.88,101.88 109.66,102.40 109.41,102.94 C110.35,100.77 110.79,98.64 110.60,96.94 ZM 102.68 111.29 C103.68,110.76 104.64,109.89 105.83,108.54 C104.55,110.00 103.79,110.82 102.68,111.29 ZM 99.06 87.04 C99.87,86.60 100.42,86.38 100.97,86.42 C100.49,86.45 99.90,86.66 99.06,87.04 Z" fill="rgb(242,74,146)"/>
<path d="M 143.35 126.47 C144.54,129.56 145.25,127.87 144.65,123.43 C144.03,118.97 144.08,118.87 146.60,119.18 C148.80,119.45 149.37,118.94 150.48,115.74 C152.18,110.79 153.77,109.00 156.46,109.00 C158.89,109.00 165.00,102.21 165.00,99.51 C165.00,98.63 166.15,96.75 167.57,95.34 C169.50,93.41 170.81,92.91 172.86,93.32 C176.14,93.98 177.50,93.24 178.41,90.31 C178.82,89.02 180.47,87.67 182.43,87.02 C184.95,86.19 185.91,85.20 186.36,82.96 C186.83,80.62 187.48,80.00 189.48,80.00 L 192.00 80.00 L 192.00 192.00 L 0.00 192.00 L 0.00 20.57 C0.00,40.96 0.02,41.13 2.09,40.47 C3.92,39.89 4.04,40.05 3.10,41.82 C2.51,42.92 1.56,43.98 0.99,44.17 C0.31,44.40 0.04,50.19 0.22,60.75 L 0.50 76.99 L 6.00 73.69 C12.85,69.57 15.30,68.60 14.77,70.19 C14.55,70.84 13.05,71.81 11.44,72.34 C9.82,72.87 8.27,73.57 8.00,73.91 C7.72,74.24 5.82,75.64 3.76,77.01 L 0.01 79.50 L 0.00 157.22 L 2.58 156.57 C4.70,156.04 5.10,156.24 4.82,157.71 C4.63,158.69 3.47,159.64 2.24,159.82 C0.06,160.13 0.00,160.46 0.00,172.57 C0.00,179.41 0.19,185.00 0.42,185.00 C1.82,185.00 4.00,183.62 4.00,182.74 C4.00,182.16 5.17,180.16 6.60,178.28 C8.03,176.41 9.62,173.33 10.14,171.44 C10.67,169.53 11.74,168.00 12.55,168.00 C14.46,168.00 14.42,168.20 11.50,174.59 C10.12,177.60 9.00,180.72 9.00,181.53 C9.00,182.34 8.63,183.00 8.19,183.00 C7.52,183.00 5.73,185.96 3.19,191.25 C3.00,191.66 4.22,192.00 5.92,192.00 C7.85,192.00 9.00,191.49 9.00,190.64 C9.00,189.46 12.28,186.90 22.91,179.76 C24.33,178.81 27.03,177.23 28.90,176.26 C30.77,175.29 34.95,171.86 38.20,168.64 C41.45,165.41 44.35,163.02 44.66,163.32 C44.96,163.62 46.29,162.66 47.61,161.19 C49.92,158.59 50.05,158.56 51.47,160.39 C52.80,162.12 53.33,162.17 57.71,160.99 C64.57,159.14 65.50,158.47 65.50,155.34 C65.50,151.19 68.82,150.86 69.63,154.92 C70.01,156.80 70.89,158.03 71.88,158.07 C87.76,158.76 91.00,158.68 91.00,157.59 C91.00,156.94 90.44,155.84 89.76,155.16 C88.63,154.03 88.16,150.94 88.05,143.89 C88.01,141.44 87.58,141.21 80.57,140.01 C73.16,138.74 72.11,138.85 68.72,141.24 C66.49,142.82 65.15,141.10 65.46,137.06 C65.78,133.03 66.70,132.11 69.75,132.75 C71.26,133.06 82.14,133.49 93.92,133.70 C111.95,134.02 115.99,133.82 119.42,132.46 C124.50,130.44 127.63,127.59 130.13,122.73 C131.89,119.29 132.06,116.83 131.96,94.99 C131.91,81.81 132.17,70.53 132.55,69.93 C133.54,68.31 135.13,70.22 136.99,75.26 C138.90,80.44 141.88,81.36 144.38,77.55 C145.29,76.15 146.70,75.00 147.50,75.00 C148.30,75.00 150.42,73.38 152.23,71.40 C154.03,69.42 157.52,66.64 160.00,65.23 C162.48,63.82 166.20,60.94 168.29,58.83 C170.37,56.72 172.67,55.00 173.39,55.00 C174.12,55.00 177.97,51.40 181.94,47.00 C185.91,42.60 189.80,39.00 190.58,39.00 C191.76,39.00 192.00,35.67 192.00,19.50 L 192.00 52.22 L 189.43 51.57 C187.43,51.07 186.07,51.61 183.39,53.96 C181.49,55.63 179.51,57.00 178.99,57.00 C178.47,57.00 177.37,58.32 176.54,59.93 C175.70,61.54 174.14,63.14 173.06,63.48 C171.99,63.82 169.40,65.65 167.30,67.54 C163.66,70.84 158.67,73.71 152.75,75.92 C151.24,76.49 150.00,77.38 150.00,77.91 C150.00,78.44 147.76,80.09 145.03,81.58 C141.42,83.54 139.77,85.17 139.00,87.51 C137.78,91.20 138.48,109.16 139.95,111.91 C140.48,112.89 140.56,114.10 140.14,114.60 C139.72,115.09 139.56,118.11 139.78,121.29 C140.11,125.88 140.46,126.86 141.48,126.02 C142.42,125.23 142.92,125.36 143.35,126.47 ZM 21.72 190.54 C21.01,191.81 25.00,192.00 51.80,192.00 C81.12,192.00 82.78,191.90 84.45,190.06 C85.42,188.99 87.40,187.97 88.85,187.81 C91.89,187.46 93.45,183.00 90.54,183.00 C85.13,183.00 70.57,171.96 71.20,168.34 C71.41,167.14 70.51,166.33 68.26,165.67 C64.05,164.43 56.65,166.72 45.10,172.83 C36.99,177.12 23.51,187.33 21.72,190.54 ZM 104.31 174.21 C104.96,174.63 105.56,174.98 105.63,174.98 C105.71,174.99 106.51,173.87 107.41,172.49 C108.97,170.12 108.95,169.86 106.99,167.76 C105.04,165.67 105.02,165.46 106.65,164.27 C107.60,163.57 108.97,163.00 109.68,163.00 C110.42,163.00 111.25,161.28 111.62,158.97 C112.32,154.60 116.04,151.02 119.55,151.33 C121.20,151.47 121.48,150.90 121.38,147.64 C121.31,145.51 120.75,143.46 120.13,143.08 C119.52,142.70 115.52,142.30 111.26,142.20 C106.99,142.09 100.69,141.72 97.25,141.38 C93.13,140.98 91.00,141.13 91.00,141.82 C91.00,142.41 91.45,143.16 92.00,143.50 C92.55,143.84 93.00,145.19 93.00,146.50 C93.00,147.81 93.49,149.19 94.10,149.56 C94.70,149.93 94.99,151.58 94.75,153.23 C94.15,157.36 96.18,162.73 99.40,165.50 C100.89,166.78 102.33,169.09 102.61,170.64 C102.89,172.19 103.66,173.80 104.31,174.21 ZM 113.36 40.50 C112.53,41.33 111.44,42.00 110.93,42.00 C108.54,42.00 110.63,39.55 117.75,34.01 C122.01,30.69 126.56,27.07 127.86,25.96 C129.16,24.86 131.10,23.48 132.17,22.91 C133.37,22.27 133.99,21.05 133.80,19.69 C133.56,17.93 134.07,17.43 136.36,17.17 C137.93,16.99 141.36,15.53 143.97,13.92 C149.55,10.49 150.16,10.41 152.35,12.83 C154.41,15.11 154.44,16.00 152.47,16.00 C149.43,16.00 141.17,20.92 126.02,31.75 C120.44,35.74 115.65,39.00 115.37,39.00 C115.09,39.00 114.18,39.67 113.36,40.50 ZM 78.92 34.63 C70.91,42.53 63.71,48.99 62.92,48.98 C62.14,48.97 69.39,41.20 79.02,31.73 C96.34,14.71 105.32,8.00 110.81,8.00 C111.92,8.00 112.98,7.56 113.17,7.01 C113.66,5.54 123.00,4.45 123.00,5.86 C123.00,6.49 121.82,7.00 120.38,7.00 C116.97,7.00 107.09,11.43 99.50,16.36 C96.20,18.51 86.94,26.73 78.92,34.63 ZM 19.00 151.88 C19.00,154.74 17.61,155.21 16.14,152.86 C14.97,150.98 14.73,150.95 12.48,152.42 C9.41,154.43 9.00,154.40 9.00,152.17 C9.00,151.17 10.07,149.35 11.37,148.12 C13.49,146.13 14.86,143.49 18.20,135.01 C19.15,132.59 19.22,132.57 20.60,134.46 C22.08,136.49 21.64,144.73 19.87,148.18 C19.39,149.11 19.00,150.77 19.00,151.88 ZM 143.50 37.00 C141.70,38.99 139.00,39.72 139.00,38.21 C139.00,36.90 147.77,30.00 149.44,30.00 C150.30,30.00 151.00,29.64 151.00,29.20 C151.00,28.15 163.92,15.11 166.15,13.92 C169.89,11.92 170.06,14.17 166.53,18.96 C164.16,22.17 153.93,30.00 152.10,30.00 C151.62,30.00 150.49,31.12 149.59,32.50 C148.69,33.88 147.36,35.00 146.63,35.00 C145.90,35.00 144.50,35.90 143.50,37.00 ZM 41.00 0.00 L 85.32 0.00 L 84.16 2.55 C83.52,3.95 83.00,5.75 83.00,6.55 C83.00,7.35 82.52,8.00 81.94,8.00 C81.36,8.00 81.12,8.38 81.41,8.85 C82.03,9.85 76.61,20.64 74.04,23.50 C73.06,24.60 71.73,26.51 71.10,27.74 C70.46,28.97 68.55,30.70 66.85,31.58 C63.86,33.13 63.81,33.12 65.13,31.24 C65.88,30.18 67.77,27.78 69.32,25.91 C75.91,17.96 82.00,6.40 82.00,1.85 C82.00,0.08 80.23,0.00 41.00,0.00 ZM 81.90 171.52 C86.35,174.77 88.01,174.69 87.97,171.25 C87.91,166.60 85.66,164.72 79.52,164.21 C75.13,163.85 74.00,164.05 74.00,165.22 C74.00,166.02 75.01,167.21 76.25,167.86 C77.49,168.51 80.03,170.16 81.90,171.52 ZM 113.66 0.00 L 148.15 0.00 L 145.15 3.00 C142.28,5.87 141.78,6.00 133.49,6.00 C127.01,6.00 124.94,5.69 125.25,4.75 C125.50,3.98 127.93,3.40 131.58,3.24 C138.91,2.92 142.00,2.25 142.00,0.98 C142.00,0.36 131.52,0.00 113.66,0.00 ZM 163.08 0.00 L 188.00 0.00 C185.08,0.00 184.00,0.41 184.00,1.52 C184.00,2.36 182.85,3.49 181.44,4.02 C180.03,4.56 177.74,6.35 176.35,8.00 C174.96,9.65 173.36,11.00 172.80,11.00 C171.76,11.00 174.26,6.61 176.68,4.18 C177.41,3.45 178.00,2.21 178.00,1.43 C178.00,0.25 175.34,0.00 163.08,0.00 ZM 20.93 124.66 C21.10,130.33 20.22,132.89 18.64,131.31 C17.68,130.35 17.90,114.71 18.89,113.15 C19.92,111.52 20.66,115.68 20.93,124.66 ZM 121.36 161.38 C122.00,163.16 122.14,163.14 124.02,160.98 C126.12,158.56 126.72,154.00 124.94,154.00 C124.36,154.00 124.14,153.58 124.46,153.07 C124.77,152.56 124.51,151.81 123.87,151.42 C123.04,150.91 122.90,151.48 123.40,153.45 C124.14,156.40 122.49,159.42 120.73,158.33 C120.16,157.98 119.92,158.10 120.19,158.60 C120.47,159.09 120.99,160.35 121.36,161.38 ZM 47.19 112.16 C45.61,114.39 44.00,114.55 44.00,112.48 C44.00,111.64 45.06,110.55 46.36,110.05 C47.66,109.56 49.00,108.44 49.33,107.58 C49.98,105.88 53.00,105.37 53.00,106.96 C53.00,107.50 51.99,108.47 50.75,109.12 C49.51,109.78 47.91,111.15 47.19,112.16 ZM 11.00 33.03 C11.00,33.53 10.10,34.41 9.00,35.00 C5.58,36.83 6.80,34.44 11.48,30.13 C13.94,27.86 16.18,26.00 16.46,26.00 C17.75,26.00 14.48,31.03 12.85,31.55 C11.83,31.87 11.00,32.54 11.00,33.03 ZM 64.82 147.25 C64.59,148.86 63.72,149.59 61.75,149.82 C59.94,150.02 59.00,149.67 59.00,148.77 C59.00,146.83 61.07,145.00 63.27,145.00 C64.64,145.00 65.05,145.61 64.82,147.25 ZM 52.45 46.84 C49.19,48.33 48.95,48.30 49.62,46.55 C50.27,44.84 56.92,39.59 57.59,40.26 C57.84,40.51 57.36,41.28 56.52,41.98 C55.69,42.68 55.00,43.79 55.00,44.46 C55.00,45.13 53.85,46.20 52.45,46.84 ZM 129.25 21.01 C128.29,21.02 126.49,21.30 125.25,21.63 C122.47,22.38 122.24,20.48 124.93,19.04 C127.77,17.52 131.00,17.76 131.00,19.50 C131.00,20.33 130.21,21.01 129.25,21.01 ZM 100.00 55.14 C100.00,55.61 99.55,56.00 99.00,56.00 C97.50,56.00 97.77,54.96 100.18,51.44 C102.36,48.26 106.01,45.30 105.98,46.74 C105.98,47.16 104.63,49.02 102.98,50.89 C101.34,52.75 100.00,54.66 100.00,55.14 ZM 86.50 83.00 C86.16,82.45 86.21,81.47 86.61,80.83 C87.10,80.04 86.78,79.87 85.61,80.32 C84.59,80.71 84.14,80.58 84.51,79.99 C85.41,78.52 88.58,78.79 89.96,80.46 C90.63,81.26 90.88,82.38 90.53,82.96 C89.71,84.28 87.31,84.31 86.50,83.00 ZM 112.43 166.89 C113.36,168.40 114.86,168.28 116.57,166.57 C118.46,164.68 118.37,164.00 116.25,164.02 C113.71,164.04 111.63,165.60 112.43,166.89 ZM 76.85 56.43 C72.42,58.63 72.22,58.42 75.50,55.00 C78.65,51.71 80.00,51.24 80.00,53.43 C80.00,54.21 78.58,55.56 76.85,56.43 ZM 162.02 13.48 C160.60,15.19 157.00,15.55 157.00,13.98 C157.00,12.70 161.78,10.45 162.65,11.31 C163.00,11.66 162.72,12.64 162.02,13.48 ZM 187.00 157.68 C187.00,158.68 187.54,158.71 189.50,157.82 C192.12,156.63 192.94,154.00 190.70,154.00 C189.04,154.00 187.00,156.02 187.00,157.68 ZM 124.56 50.58 C122.41,52.15 120.00,52.46 120.00,51.17 C120.00,49.90 124.89,47.56 125.75,48.41 C126.16,48.83 125.62,49.80 124.56,50.58 ZM 56.09 56.21 C54.46,58.11 53.00,58.56 53.00,57.15 C53.00,56.27 55.53,53.86 57.90,52.50 C59.48,51.59 58.74,53.12 56.09,56.21 ZM 85.00 50.00 C83.96,51.94 81.00,52.82 81.00,51.20 C81.00,49.94 83.27,48.00 84.74,48.00 C85.76,48.00 85.82,48.46 85.00,50.00 ZM 35.67 84.33 C36.07,84.74 35.24,86.15 33.81,87.48 C30.44,90.60 29.40,89.56 32.52,86.19 C33.85,84.76 35.26,83.93 35.67,84.33 ZM 47.42 63.39 C44.62,64.47 44.02,63.38 46.20,61.20 C47.80,59.60 49.00,59.68 49.00,61.39 C49.00,62.16 48.29,63.06 47.42,63.39 ZM 93.06 42.88 C92.00,44.86 89.00,46.52 89.00,45.12 C89.00,44.16 92.35,41.00 93.36,41.00 C93.75,41.00 93.62,41.85 93.06,42.88 ZM 41.02 68.48 C39.63,70.15 38.00,70.50 38.00,69.12 C38.00,67.84 40.94,65.61 41.67,66.33 C42.01,66.67 41.72,67.64 41.02,68.48 ZM 90.41 174.62 C90.92,175.96 91.33,176.07 92.27,175.13 C93.22,174.18 93.16,173.72 92.02,173.01 C90.16,171.86 89.57,172.45 90.41,174.62 ZM 131.10 45.38 C129.51,47.30 127.66,47.53 128.25,45.75 C128.48,45.06 129.51,44.34 130.55,44.13 C132.18,43.82 132.26,43.99 131.10,45.38 ZM 32.39 75.42 C32.06,76.29 31.38,77.00 30.89,77.00 C29.51,77.00 29.84,75.38 31.50,74.00 C33.13,72.65 33.33,72.97 32.39,75.42 ZM 176.23 139.81 C176.01,140.47 176.55,141.00 177.42,141.00 C178.29,141.00 179.00,140.29 179.00,139.42 C179.00,137.65 176.85,137.96 176.23,139.81 ZM 19.00 86.00 C19.00,86.51 18.11,87.41 17.02,87.99 C15.44,88.84 15.15,88.76 15.60,87.60 C16.25,85.92 19.00,84.62 19.00,86.00 ZM 117.00 54.89 C117.00,55.38 116.32,56.05 115.50,56.36 C114.59,56.71 114.00,56.36 114.00,55.47 C114.00,54.66 114.68,54.00 115.50,54.00 C116.32,54.00 117.00,54.40 117.00,54.89 ZM 156.00 189.94 C156.00,191.07 156.45,192.00 157.00,192.00 C157.55,192.00 158.00,191.35 158.00,190.56 C158.00,189.77 157.55,188.84 157.00,188.50 C156.45,188.16 156.00,188.81 156.00,189.94 ZM 18.00 158.50 C18.00,159.32 17.55,160.00 17.00,160.00 C16.45,160.00 16.00,159.32 16.00,158.50 C16.00,157.68 16.45,157.00 17.00,157.00 C17.55,157.00 18.00,157.68 18.00,158.50 ZM 46.50 51.00 C46.16,51.55 45.21,52.00 44.38,52.00 C43.56,52.00 43.16,51.55 43.50,51.00 C43.84,50.45 44.79,50.00 45.62,50.00 C46.44,50.00 46.84,50.45 46.50,51.00 ZM 37.34 3.55 C36.74,5.13 35.00,5.54 35.00,4.11 C35.00,3.62 35.65,2.96 36.45,2.66 C37.42,2.29 37.71,2.58 37.34,3.55 ZM 108.50 30.00 C108.16,30.55 107.46,31.00 106.94,31.00 C106.42,31.00 106.00,30.55 106.00,30.00 C106.00,29.45 106.70,29.00 107.56,29.00 C108.42,29.00 108.84,29.45 108.50,30.00 Z" fill="rgb(240,179,180)"/>
<path d="M 102.68 87.26 C102.74,87.32 102.81,87.38 102.87,87.44 C104.10,88.67 104.14,89.00 103.06,89.00 C102.00,89.00 102.07,89.42 103.35,90.83 C104.26,91.83 105.00,93.41 105.00,94.33 C105.00,95.25 105.45,96.00 106.00,96.00 C106.55,96.00 107.00,95.32 107.00,94.50 C107.00,92.95 107.88,92.68 108.86,93.53 C109.12,93.90 109.35,94.26 109.53,94.58 C110.07,95.52 110.42,96.25 110.60,96.94 C110.79,98.64 110.35,100.77 109.41,102.94 C108.51,104.85 107.09,107.10 105.83,108.54 C104.64,109.89 103.68,110.76 102.68,111.29 C101.60,111.74 100.21,111.86 97.73,111.89 C96.54,111.70 96.00,111.25 96.00,110.50 C96.00,109.68 95.59,109.00 95.10,109.00 C94.60,109.00 93.22,107.35 92.03,105.33 C90.49,102.71 90.08,100.92 90.60,99.08 C91.00,97.66 91.25,96.13 91.14,95.69 C90.78,94.10 93.48,90.54 96.37,88.52 C96.84,88.32 97.37,88.03 98.01,87.65 C98.41,87.42 98.75,87.22 99.06,87.04 C99.90,86.66 100.49,86.45 100.97,86.42 C101.48,86.47 101.98,86.73 102.68,87.26 Z" fill="rgb(247,44,118)"/>
<path d="M 0.00 0.00 L 41.00 0.00 C49.79,0.00 56.70,0.00 62.13,0.03 C60.79,0.13 60.90,0.57 61.61,2.42 C62.35,4.36 62.76,4.39 64.57,2.57 C66.27,0.87 66.38,0.21 64.66,0.04 C74.26,0.11 78.56,0.27 80.48,0.65 C80.19,1.33 80.00,2.48 80.00,3.82 C80.00,6.51 79.12,8.81 77.03,11.57 C75.39,13.73 74.04,16.05 74.03,16.72 C74.01,17.38 72.65,19.47 71.00,21.35 C69.35,23.23 68.00,25.21 68.00,25.75 C68.00,27.01 46.05,48.00 44.72,48.00 C44.18,48.00 42.70,49.01 41.44,50.25 C38.54,53.10 33.20,57.18 30.54,58.57 C20.31,63.91 10.23,69.44 9.00,70.38 C8.18,71.00 5.81,72.37 3.75,73.42 C2.35,74.13 1.12,74.94 0.48,75.56 L 0.22 60.75 C0.18,57.99 0.16,55.56 0.17,53.47 C0.43,53.78 0.93,54.00 1.50,54.00 C2.33,54.00 3.00,53.55 3.00,53.00 C3.00,52.45 2.33,52.00 1.50,52.00 C0.93,52.00 0.44,52.21 0.18,52.52 C0.23,48.64 0.38,46.06 0.65,44.89 C1.47,44.57 4.33,41.83 7.31,38.50 C12.30,32.93 14.13,30.08 11.00,33.03 C11.01,32.53 11.84,31.87 12.85,31.55 C14.14,31.14 16.45,27.91 16.72,26.57 C20.35,23.75 30.65,12.90 33.66,8.50 C34.53,7.23 35.16,5.78 35.28,4.85 C35.80,5.27 36.89,4.74 37.34,3.55 C37.40,3.41 37.44,3.28 37.46,3.17 C38.14,3.02 38.63,2.51 38.79,1.75 C39.43,-1.40 36.56,-0.08 33.98,3.96 C32.59,6.13 25.39,14.30 17.98,22.11 C2.78,38.14 2.01,39.01 1.23,39.01 C1.18,39.01 1.14,39.01 1.09,39.01 C1.04,39.00 0.99,39.00 0.93,39.00 C0.72,39.00 0.53,39.08 0.37,39.21 C0.01,37.07 0.00,32.00 0.00,20.57 ZM 0.01 102.04 C0.07,103.86 0.41,103.85 2.19,102.90 C3.39,102.26 6.43,99.85 8.94,97.56 C11.45,95.27 14.76,92.61 16.30,91.65 C17.83,90.68 19.54,88.90 20.10,87.69 C21.06,85.58 23.67,83.56 30.35,79.78 C32.02,78.84 33.79,77.34 34.28,76.46 C34.77,75.58 36.41,74.11 37.93,73.18 C39.44,72.26 43.27,69.25 46.44,66.50 C49.61,63.75 53.07,61.03 54.13,60.45 C56.74,59.03 69.92,46.84 83.05,33.70 C100.43,16.31 116.26,7.48 124.42,10.61 C126.68,11.47 126.38,12.51 123.47,13.83 C121.00,14.96 119.45,16.22 112.52,22.75 C110.62,24.54 108.45,26.00 107.69,26.00 C106.37,26.00 100.33,30.78 89.50,40.38 C80.38,48.47 77.53,50.71 74.25,52.39 C70.84,54.13 70.52,54.70 71.83,56.75 C72.41,57.67 73.40,57.19 75.50,55.00 C72.59,58.04 72.42,58.55 75.53,57.07 C75.23,57.36 75.47,57.55 76.19,57.72 C77.12,57.94 78.92,57.46 80.19,56.64 C81.46,55.83 84.41,54.66 86.75,54.04 C89.30,53.37 91.00,52.34 91.00,51.46 C91.00,50.66 91.56,50.11 92.25,50.25 C92.94,50.39 93.51,49.74 93.51,48.82 C93.53,46.66 94.56,45.66 96.96,45.48 C98.60,45.36 98.73,45.64 97.79,47.40 C97.18,48.53 96.08,50.06 95.34,50.80 C92.42,53.72 95.25,58.66 99.29,57.68 C100.50,57.38 103.20,56.70 105.28,56.17 C108.27,55.40 109.37,55.51 110.58,56.72 C111.68,57.82 113.18,58.07 116.06,57.61 C119.68,57.03 120.38,57.31 124.40,61.01 C126.81,63.23 129.34,66.40 130.02,68.04 C130.95,70.29 131.56,70.77 132.52,69.98 C132.28,70.70 132.08,76.04 132.00,83.42 L 132.00 72.88 L 128.82 68.02 C123.13,59.33 121.87,59.00 94.56,59.00 C75.86,59.00 70.31,59.30 68.10,60.45 C64.69,62.21 59.00,68.52 59.00,70.53 C59.00,71.34 58.55,72.00 58.00,72.00 C57.38,72.00 57.00,77.44 57.00,86.33 L 57.00 100.67 L 53.81 100.67 C52.05,100.67 50.44,101.17 50.24,101.78 C50.04,102.39 49.22,102.64 48.44,102.34 C47.65,102.03 47.00,102.28 47.00,102.89 C47.00,103.50 46.15,104.00 45.12,104.00 C43.96,104.00 41.44,106.45 38.57,110.35 C34.00,116.58 26.68,122.54 24.93,121.46 C23.25,120.42 21.78,112.80 22.83,110.59 C23.38,109.44 24.88,105.82 26.16,102.54 C27.70,98.62 30.48,94.45 34.26,90.40 C40.12,84.12 40.98,81.00 36.85,81.00 C34.67,81.00 27.00,87.66 27.00,89.55 C27.00,90.22 25.92,91.48 24.59,92.35 C23.15,93.29 21.50,96.04 20.46,99.21 C19.51,102.12 18.40,104.95 17.99,105.50 C16.71,107.23 15.00,119.36 15.00,126.77 C15.00,130.67 14.52,135.14 13.94,136.68 C12.68,140.02 8.25,143.91 5.66,143.96 C4.06,144.00 3.91,144.54 4.53,148.25 C4.91,150.59 4.91,152.20 4.53,151.83 C3.70,151.04 0.03,154.50 0.00,156.09 ZM 113.66 0.00 C121.37,0.00 127.71,0.07 132.42,0.19 C129.48,0.42 126.48,0.86 124.41,1.49 C121.71,2.31 118.42,2.98 117.10,2.99 C114.39,3.00 104.47,7.43 103.45,9.08 C103.08,9.68 100.85,10.99 98.48,12.01 C95.47,13.30 88.40,19.61 74.89,33.05 C56.99,50.87 48.66,58.49 41.57,63.50 C40.02,64.60 35.99,68.11 32.62,71.30 C29.26,74.49 23.47,79.18 19.76,81.72 C16.06,84.26 12.76,87.19 12.43,88.24 C12.09,89.28 10.62,90.89 9.14,91.82 C2.37,96.07 0.17,98.22 0.01,100.89 L 0.01 79.50 L 2.83 77.62 C0.66,79.24 0.17,80.00 1.31,80.00 C2.25,80.00 4.88,78.65 7.16,77.00 C9.44,75.35 11.75,74.00 12.31,74.00 C12.86,74.00 14.82,72.85 16.67,71.44 C18.51,70.03 20.99,68.69 22.17,68.47 C23.35,68.24 25.32,67.11 26.55,65.95 C27.78,64.80 29.44,63.76 30.24,63.64 C31.04,63.52 33.00,62.54 34.60,61.46 C36.19,60.38 37.99,59.28 38.58,59.00 C40.45,58.14 51.88,48.54 51.94,47.78 C51.97,47.47 51.56,47.36 50.97,47.49 C51.37,47.33 51.86,47.11 52.45,46.84 C53.85,46.20 55.00,45.13 55.00,44.46 C55.00,43.80 55.67,42.70 56.50,42.00 C55.50,43.10 55.18,44.00 55.79,44.00 C57.86,44.00 72.57,28.42 77.51,20.98 C82.39,13.65 85.94,5.43 85.93,1.50 C85.93,-0.27 85.76,-0.21 84.50,2.00 C84.19,2.54 83.90,3.17 83.66,3.78 C83.81,3.36 83.98,2.94 84.16,2.55 L 85.32 0.00 ZM 41.25 80.34 C43.84,81.38 45.33,80.91 49.36,77.76 C54.59,73.68 55.09,73.18 57.78,69.35 C60.52,65.45 60.54,65.00 57.90,65.00 C55.83,65.00 40.00,77.38 40.00,79.00 C40.00,79.46 40.56,80.06 41.25,80.34 ZM 41.31 129.54 C40.46,130.40 38.38,130.95 36.52,130.83 C33.39,130.62 33.29,130.48 34.21,127.83 C34.74,126.30 36.62,124.16 38.38,123.07 C40.15,121.98 42.65,120.17 43.95,119.05 C46.86,116.52 48.00,116.46 48.00,118.82 C48.00,120.90 43.55,125.18 42.44,124.17 C42.03,123.80 41.96,124.52 42.26,125.77 C42.60,127.11 42.21,128.65 41.31,129.54 ZM 61.87 126.25 C64.51,129.45 62.05,128.05 58.11,124.11 C54.42,120.42 54.25,119.97 54.75,115.36 C55.59,107.70 56.86,105.58 56.94,111.72 C57.00,116.84 59.02,122.80 61.87,126.25 ZM 105.44 41.06 C103.49,43.22 102.42,43.48 101.51,42.02 C100.65,40.63 102.80,37.00 104.48,37.00 C106.82,37.00 107.30,39.01 105.44,41.06 ZM 30.15 144.48 C30.41,145.95 29.91,146.50 28.25,146.60 C26.42,146.70 26.00,146.20 26.00,143.92 C26.00,139.08 29.29,139.53 30.15,144.48 ZM 12.05 46.43 C10.04,48.86 12.69,48.46 16.68,45.75 C19.65,43.73 20.93,42.00 19.45,42.00 C18.22,42.00 13.27,44.97 12.05,46.43 ZM 111.96 34.05 C110.43,36.18 109.00,36.61 109.00,34.95 C109.00,33.36 114.08,29.00 115.90,29.03 C117.30,29.06 117.29,29.22 115.77,30.38 C114.81,31.11 114.36,32.06 114.77,32.51 C115.17,32.96 115.02,33.05 114.43,32.71 C113.84,32.38 112.73,32.98 111.96,34.05 ZM 34.00 30.61 C34.00,31.75 34.43,31.84 35.98,31.01 C37.99,29.93 40.51,26.18 39.73,25.40 C38.95,24.62 34.00,29.12 34.00,30.61 ZM 26.61 35.58 C26.25,36.52 26.74,37.00 28.06,37.00 C29.93,37.00 31.83,34.50 30.77,33.43 C29.96,32.63 27.19,34.06 26.61,35.58 ZM 0.49 76.44 C1.12,76.35 2.29,75.85 3.63,75.06 C3.99,74.84 4.35,74.65 4.69,74.47 L 0.50 76.99 ZM 77.74 13.34 C76.15,16.27 74.22,19.36 72.16,22.23 C73.94,19.58 76.00,16.31 77.74,13.34 ZM 12.43 72.02 C11.67,72.32 11.00,72.54 10.43,72.69 C10.76,72.57 11.10,72.45 11.44,72.34 C13.05,71.81 14.55,70.84 14.77,70.19 C14.85,69.95 14.86,69.77 14.81,69.65 C14.93,69.74 15.00,69.87 15.00,70.06 C15.00,70.60 13.85,71.49 12.43,72.02 ZM 0.00 157.22 L 0.00 156.13 C0.02,156.80 0.98,156.97 2.58,156.57 L 0.00 157.22 ZM 131.98 104.00 C131.96,117.63 131.61,119.83 130.13,122.72 C131.56,119.91 131.91,117.43 131.98,104.00 ZM 81.52 4.65 C81.55,4.44 81.58,4.22 81.62,4.00 C81.80,2.82 81.88,1.91 81.84,1.25 C81.97,1.43 82.00,1.62 82.00,1.85 C82.00,2.61 81.83,3.56 81.52,4.65 ZM 8.03 73.88 C8.09,74.18 7.86,74.50 7.40,74.67 C7.17,74.75 6.75,74.99 6.21,75.32 C7.15,74.64 7.84,74.10 8.00,73.91 C8.01,73.90 8.02,73.89 8.03,73.88 ZM 77.48 56.08 C78.89,55.25 79.97,54.14 80.00,53.45 C80.00,53.48 80.00,53.50 80.00,53.52 C80.00,54.32 78.88,55.44 77.48,56.08 ZM 65.85 30.27 C65.56,30.65 65.31,30.99 65.13,31.24 C63.90,32.99 63.86,33.12 66.29,31.87 C63.59,33.26 63.61,33.17 64.95,31.40 C65.19,31.10 65.50,30.70 65.85,30.27 ZM 13.63 69.62 C12.82,69.89 11.59,70.48 9.88,71.43 C11.35,70.48 12.69,69.85 13.63,69.62 ZM 51.17 44.63 C51.82,43.96 52.62,43.24 53.52,42.55 C56.53,40.26 58.12,39.53 57.65,40.49 C57.67,40.39 57.65,40.31 57.59,40.26 C57.10,39.77 53.37,42.48 51.17,44.63 ZM 133.79 69.50 C134.31,69.65 134.82,70.33 135.49,71.75 C134.87,70.55 134.29,69.80 133.79,69.50 ZM 13.25 28.53 C12.69,29.02 12.09,29.56 11.48,30.13 C10.94,30.62 10.44,31.10 10.00,31.54 C11.05,30.44 12.23,29.34 13.25,28.53 ZM 139.98 79.58 C141.42,80.31 142.99,79.66 144.38,77.55 C142.97,79.69 141.41,80.34 139.98,79.58 ZM 78.73 15.85 C77.19,18.90 75.31,22.08 74.04,23.50 C75.27,22.12 77.17,18.92 78.73,15.85 ZM 7.31 35.62 C7.54,35.63 7.90,35.53 8.42,35.29 C7.93,35.59 7.53,35.71 7.31,35.62 ZM 49.32 47.56 C49.28,47.36 49.37,47.05 49.57,46.68 C49.43,47.06 49.33,47.35 49.32,47.56 ZM 35.54 3.21 C35.39,3.33 35.27,3.47 35.18,3.60 C35.23,3.42 35.34,3.29 35.54,3.21 ZM 0.85 44.29 C0.90,44.23 0.94,44.19 0.99,44.17 C1.08,44.14 1.18,44.09 1.29,44.01 C1.14,44.13 0.99,44.23 0.85,44.29 ZM 83.05 6.01 C83.04,6.09 83.04,6.17 83.04,6.25 C83.03,6.40 83.02,6.54 83.00,6.68 C83.00,6.64 83.00,6.59 83.00,6.55 C83.00,6.40 83.02,6.21 83.05,6.01 ZM 1.37 40.65 C1.59,40.61 1.83,40.55 2.09,40.47 C1.81,40.56 1.57,40.63 1.37,40.65 ZM 82.33 7.90 C82.22,7.96 82.11,8.00 81.99,8.00 C81.98,8.00 81.98,8.00 81.97,8.00 C82.10,7.99 82.22,7.96 82.33,7.90 Z" fill="rgb(245,195,198)"/>
<path d="M 163.08 0.00 C175.34,0.00 178.00,0.25 178.00,1.43 C178.00,2.21 177.41,3.45 176.68,4.18 C174.26,6.61 171.76,11.00 172.80,11.00 C173.36,11.00 174.96,9.65 176.35,8.00 C177.74,6.35 180.03,4.56 181.44,4.02 C182.85,3.49 184.00,2.36 184.00,1.52 C184.00,0.41 185.08,0.00 188.00,0.00 L 192.00 0.00 L 192.00 19.50 C192.00,35.67 191.76,39.00 190.58,39.00 C189.80,39.00 185.91,42.60 181.94,47.00 C177.97,51.40 174.12,55.00 173.39,55.00 C172.67,55.00 170.37,56.72 168.29,58.83 C166.20,60.94 162.48,63.82 160.00,65.23 C157.52,66.64 154.03,69.42 152.23,71.40 C150.42,73.38 148.30,75.00 147.50,75.00 C146.70,75.00 145.29,76.15 144.38,77.55 C142.99,79.66 141.42,80.31 139.98,79.58 C138.86,78.98 137.82,77.53 136.99,75.26 C136.46,73.84 135.96,72.67 135.49,71.75 C134.82,70.33 134.31,69.65 133.79,69.50 C133.31,69.23 132.89,69.36 132.55,69.93 C132.54,69.94 132.53,69.96 132.52,69.98 C131.56,70.77 130.95,70.29 130.02,68.04 C129.34,66.40 126.81,63.23 124.40,61.01 C120.38,57.31 119.68,57.03 116.06,57.61 C113.18,58.07 111.68,57.82 110.58,56.72 C109.37,55.51 108.27,55.40 105.28,56.17 C103.20,56.70 100.50,57.38 99.29,57.68 C95.25,58.66 92.42,53.72 95.34,50.80 C96.08,50.06 97.18,48.53 97.79,47.40 C98.73,45.64 98.60,45.36 96.96,45.48 C94.56,45.66 93.53,46.66 93.51,48.82 C93.51,49.74 92.94,50.39 92.25,50.25 C91.56,50.11 91.00,50.66 91.00,51.46 C91.00,52.34 89.30,53.37 86.75,54.04 C84.41,54.66 81.46,55.83 80.19,56.64 C78.92,57.46 77.12,57.94 76.19,57.72 C75.47,57.55 75.23,57.36 75.53,57.07 C75.92,56.89 76.36,56.67 76.85,56.43 C77.06,56.32 77.27,56.20 77.48,56.08 C78.88,55.44 80.00,54.32 80.00,53.52 C80.00,53.50 80.00,53.48 80.00,53.45 C80.00,51.24 78.65,51.71 75.50,55.00 L 75.50 55.00 C73.40,57.19 72.41,57.67 71.83,56.75 C70.52,54.70 70.84,54.13 74.25,52.39 C77.53,50.71 80.38,48.47 89.50,40.38 C100.33,30.78 106.37,26.00 107.69,26.00 C108.45,26.00 110.62,24.54 112.52,22.75 C119.45,16.22 121.00,14.96 123.47,13.83 C126.38,12.51 126.68,11.47 124.42,10.61 C116.26,7.48 100.43,16.31 83.05,33.70 C69.92,46.84 56.74,59.03 54.13,60.45 C53.07,61.03 49.61,63.75 46.44,66.50 C43.27,69.25 39.44,72.26 37.93,73.18 C36.41,74.11 34.77,75.58 34.28,76.46 C33.79,77.34 32.02,78.84 30.35,79.78 C23.67,83.56 21.06,85.58 20.10,87.69 C19.54,88.90 17.83,90.68 16.30,91.65 C14.76,92.61 11.45,95.27 8.94,97.56 C6.43,99.85 3.39,102.26 2.19,102.90 C0.41,103.85 0.07,103.86 0.01,102.04 L 0.01 100.89 C0.17,98.22 2.37,96.07 9.14,91.82 C10.62,90.89 12.09,89.28 12.43,88.24 C12.76,87.19 16.06,84.26 19.76,81.72 C23.47,79.18 29.26,74.49 32.62,71.30 C35.99,68.11 40.02,64.60 41.57,63.50 C48.66,58.49 56.99,50.87 74.89,33.05 C88.40,19.61 95.47,13.30 98.48,12.01 C100.85,10.99 103.08,9.68 103.45,9.08 C104.47,7.43 114.39,3.00 117.10,2.99 C118.42,2.98 121.71,2.31 124.41,1.49 C126.48,0.86 129.48,0.42 132.42,0.19 C138.62,0.36 142.00,0.63 142.00,0.98 C142.00,2.25 138.91,2.92 131.58,3.24 C127.93,3.40 125.50,3.98 125.25,4.75 C124.94,5.69 127.01,6.00 133.49,6.00 C141.78,6.00 142.28,5.87 145.15,3.00 L 148.15 0.00 ZM 3.19 191.25 C5.73,185.96 7.52,183.00 8.19,183.00 C8.63,183.00 9.00,182.34 9.00,181.53 C9.00,180.72 10.12,177.60 11.50,174.59 C14.42,168.20 14.46,168.00 12.55,168.00 C11.74,168.00 10.67,169.53 10.14,171.44 C9.62,173.33 8.03,176.41 6.60,178.28 C5.17,180.16 4.00,182.16 4.00,182.74 C4.00,183.62 1.82,185.00 0.42,185.00 C0.19,185.00 0.00,179.41 0.00,172.57 C0.00,160.46 0.06,160.13 2.24,159.82 C3.47,159.64 4.63,158.69 4.82,157.71 C5.10,156.24 4.70,156.04 2.58,156.57 C0.98,156.97 0.02,156.80 0.00,156.13 L 0.00 156.09 C0.03,154.50 3.70,151.04 4.53,151.83 C4.91,152.20 4.91,150.59 4.53,148.25 C3.91,144.54 4.06,144.00 5.66,143.96 C8.25,143.91 12.68,140.02 13.94,136.68 C14.52,135.14 15.00,130.67 15.00,126.77 C15.00,119.36 16.71,107.23 17.99,105.50 C18.40,104.95 19.51,102.12 20.46,99.21 C21.50,96.04 23.15,93.29 24.59,92.35 C25.92,91.48 27.00,90.22 27.00,89.55 C27.00,87.66 34.67,81.00 36.85,81.00 C40.98,81.00 40.12,84.12 34.26,90.40 C30.48,94.45 27.70,98.62 26.16,102.54 C24.88,105.82 23.38,109.44 22.83,110.59 C21.78,112.80 23.25,120.42 24.93,121.46 C26.68,122.54 34.00,116.58 38.57,110.35 C41.44,106.45 43.96,104.00 45.12,104.00 C46.15,104.00 47.00,103.50 47.00,102.89 C47.00,102.28 47.65,102.03 48.44,102.34 C49.22,102.64 50.04,102.39 50.24,101.78 C50.44,101.17 52.05,100.67 53.81,100.67 L 57.00 100.67 L 57.00 86.33 C57.00,77.45 57.38,72.00 58.00,72.00 C57.36,72.00 57.01,80.12 57.04,94.47 C57.07,111.27 57.24,116.09 58.31,119.47 C57.47,116.95 56.97,114.23 56.94,111.72 C56.86,105.58 55.59,107.70 54.75,115.36 C54.25,119.97 54.42,120.42 58.11,124.11 C62.05,128.05 64.51,129.45 61.87,126.25 C60.59,124.71 59.49,122.67 58.64,120.42 C58.75,120.69 58.86,120.95 58.98,121.22 C61.22,126.28 65.15,130.25 70.00,132.33 C70.61,132.60 71.67,132.83 73.08,133.03 C71.35,132.93 70.18,132.83 69.75,132.75 C66.70,132.11 65.78,133.03 65.46,137.06 C65.15,141.10 66.49,142.82 68.72,141.24 C72.11,138.85 73.16,138.74 80.57,140.01 C87.58,141.21 88.01,141.44 88.05,143.89 C88.16,150.94 88.63,154.03 89.76,155.16 C90.44,155.84 91.00,156.94 91.00,157.59 C91.00,158.68 87.76,158.76 71.88,158.07 C70.89,158.03 70.01,156.80 69.63,154.92 C68.82,150.86 65.50,151.19 65.50,155.34 C65.50,158.47 64.57,159.14 57.71,160.99 C53.33,162.17 52.80,162.12 51.47,160.39 C50.05,158.56 49.92,158.59 47.61,161.19 C46.29,162.66 44.96,163.62 44.66,163.32 C44.35,163.02 41.45,165.41 38.20,168.64 C34.95,171.86 30.77,175.29 28.90,176.26 C27.03,177.23 24.33,178.81 22.91,179.76 C12.28,186.90 9.00,189.46 9.00,190.64 C9.00,191.49 7.85,192.00 5.92,192.00 C4.22,192.00 3.00,191.66 3.19,191.25 ZM 143.35 126.47 C142.92,125.36 142.42,125.23 141.48,126.02 C140.46,126.86 140.11,125.88 139.78,121.29 C139.56,118.11 139.72,115.09 140.14,114.60 C140.56,114.10 140.48,112.89 139.95,111.91 C138.48,109.16 137.78,91.20 139.00,87.51 C139.77,85.17 141.42,83.54 145.03,81.58 C147.76,80.09 150.00,78.44 150.00,77.91 C150.00,77.38 151.24,76.49 152.75,75.92 C158.67,73.71 163.66,70.84 167.30,67.54 C169.40,65.65 171.99,63.82 173.06,63.48 C174.14,63.14 175.70,61.54 176.54,59.93 C177.37,58.32 178.47,57.00 178.99,57.00 C179.51,57.00 181.49,55.63 183.39,53.96 C186.07,51.61 187.43,51.07 189.43,51.57 L 192.00 52.22 L 192.00 80.00 L 189.48 80.00 C187.48,80.00 186.83,80.62 186.36,82.96 C185.91,85.20 184.95,86.19 182.43,87.02 C180.47,87.67 178.82,89.02 178.41,90.31 C177.50,93.24 176.14,93.98 172.86,93.32 C170.81,92.91 169.50,93.41 167.57,95.34 C166.15,96.75 165.00,98.63 165.00,99.51 C165.00,102.21 158.89,109.00 156.46,109.00 C153.77,109.00 152.18,110.79 150.48,115.74 C149.37,118.94 148.80,119.45 146.60,119.18 C144.08,118.87 144.03,118.97 144.65,123.43 C145.25,127.87 144.54,129.56 143.35,126.47 ZM 21.72 190.54 C23.51,187.33 36.99,177.12 45.10,172.83 C56.65,166.72 64.05,164.43 68.26,165.67 C70.51,166.33 71.41,167.14 71.20,168.34 C70.57,171.96 85.13,183.00 90.54,183.00 C93.45,183.00 91.89,187.46 88.85,187.81 C87.40,187.97 85.42,188.99 84.45,190.06 C82.78,191.90 81.12,192.00 51.80,192.00 C25.00,192.00 21.01,191.81 21.72,190.54 ZM 104.31 174.21 C103.66,173.80 102.89,172.19 102.61,170.64 C102.33,169.09 100.89,166.78 99.40,165.50 C96.18,162.73 94.15,157.36 94.75,153.23 C94.99,151.58 94.70,149.93 94.10,149.56 C93.49,149.19 93.00,147.81 93.00,146.50 C93.00,145.19 92.55,143.84 92.00,143.50 C91.45,143.16 91.00,142.41 91.00,141.82 C91.00,141.13 93.13,140.98 97.25,141.38 C100.69,141.72 106.99,142.09 111.26,142.20 C115.52,142.30 119.52,142.70 120.13,143.08 C120.75,143.46 121.31,145.51 121.38,147.64 C121.48,150.90 121.20,151.47 119.55,151.33 C116.04,151.02 112.32,154.60 111.62,158.97 C111.25,161.28 110.42,163.00 109.68,163.00 C108.97,163.00 107.60,163.57 106.65,164.27 C105.02,165.46 105.04,165.67 106.99,167.76 C108.95,169.86 108.97,170.12 107.41,172.49 C106.51,173.87 105.71,174.99 105.63,174.98 C105.56,174.98 104.96,174.63 104.31,174.21 ZM 0.49 76.44 L 0.48 75.56 C1.12,74.94 2.35,74.13 3.75,73.42 C5.81,72.37 8.18,71.00 9.00,70.38 C10.23,69.44 20.31,63.91 30.54,58.57 C33.20,57.18 38.54,53.10 41.44,50.25 C42.70,49.01 44.18,48.00 44.72,48.00 C46.05,48.00 68.00,27.01 68.00,25.75 C68.00,25.21 69.35,23.23 71.00,21.35 C72.65,19.47 74.01,17.38 74.03,16.72 C74.04,16.05 75.39,13.73 77.03,11.57 C79.12,8.81 80.00,6.51 80.00,3.82 C80.00,2.48 80.19,1.33 80.48,0.65 C81.27,0.81 81.65,1.01 81.84,1.25 C81.88,1.91 81.80,2.82 81.62,4.00 C81.58,4.22 81.55,4.44 81.52,4.65 C80.85,7.03 79.50,10.09 77.74,13.34 C76.00,16.31 73.94,19.58 72.16,22.23 C71.23,23.51 70.28,24.75 69.32,25.91 C68.14,27.33 66.77,29.05 65.85,30.27 C65.50,30.70 65.19,31.10 64.95,31.40 C63.61,33.17 63.59,33.26 66.29,31.87 C66.46,31.78 66.65,31.68 66.85,31.58 C68.55,30.70 70.46,28.97 71.10,27.74 C71.73,26.51 73.06,24.60 74.04,23.50 C75.31,22.08 77.19,18.90 78.73,15.85 C80.42,12.53 81.73,9.37 81.41,8.85 C81.12,8.38 81.36,8.00 81.94,8.00 C81.95,8.00 81.96,8.00 81.97,8.00 C81.98,8.00 81.98,8.00 81.99,8.00 C82.11,8.00 82.22,7.96 82.33,7.90 L 82.33 7.90 C82.69,7.70 82.96,7.23 83.00,6.68 C83.02,6.54 83.03,6.40 83.04,6.25 C83.04,6.17 83.04,6.09 83.05,6.01 C83.15,5.41 83.37,4.59 83.66,3.78 C83.90,3.17 84.19,2.54 84.50,2.00 C85.76,-0.21 85.93,-0.27 85.93,1.50 C85.94,5.43 82.39,13.65 77.51,20.98 C72.57,28.42 57.86,44.00 55.79,44.00 C55.18,44.00 55.50,43.10 56.50,42.00 C56.51,41.99 56.52,41.99 56.52,41.98 C57.18,41.44 57.61,40.85 57.65,40.49 C58.12,39.53 56.53,40.26 53.52,42.55 C52.62,43.24 51.82,43.96 51.17,44.63 C50.38,45.40 49.79,46.10 49.62,46.55 C49.60,46.59 49.59,46.64 49.57,46.68 C49.37,47.05 49.28,47.36 49.32,47.56 C49.28,48.06 49.70,48.02 50.97,47.49 C51.56,47.36 51.97,47.47 51.94,47.78 C51.88,48.54 40.45,58.14 38.58,59.00 C37.99,59.28 36.19,60.38 34.60,61.46 C33.00,62.54 31.04,63.52 30.24,63.64 C29.44,63.76 27.78,64.80 26.55,65.95 C25.32,67.11 23.35,68.24 22.17,68.47 C20.99,68.69 18.51,70.03 16.67,71.44 C14.82,72.85 12.86,74.00 12.31,74.00 C11.75,74.00 9.44,75.35 7.16,77.00 C4.88,78.65 2.25,80.00 1.31,80.00 C0.17,80.00 0.66,79.24 2.83,77.62 L 3.76 77.01 C4.64,76.42 5.50,75.83 6.21,75.32 C6.75,74.99 7.17,74.75 7.40,74.67 C7.86,74.50 8.09,74.18 8.03,73.88 C8.30,73.61 9.27,73.13 10.43,72.69 C11.00,72.54 11.67,72.32 12.43,72.02 C13.85,71.49 15.00,70.60 15.00,70.06 C15.00,69.87 14.93,69.74 14.81,69.65 C14.70,69.41 14.32,69.40 13.63,69.62 C12.69,69.85 11.35,70.48 9.88,71.43 C8.79,72.04 7.50,72.79 6.00,73.69 L 4.69 74.47 C4.35,74.65 3.99,74.84 3.63,75.06 C2.29,75.85 1.12,76.35 0.49,76.44 ZM 113.36 40.50 C114.18,39.67 115.09,39.00 115.37,39.00 C115.65,39.00 120.44,35.74 126.02,31.75 C141.17,20.92 149.43,16.00 152.47,16.00 C154.44,16.00 154.41,15.11 152.35,12.83 C150.16,10.41 149.55,10.49 143.97,13.92 C141.36,15.53 137.93,16.99 136.36,17.17 C134.07,17.43 133.56,17.93 133.80,19.69 C133.99,21.05 133.37,22.27 132.17,22.91 C131.10,23.48 129.16,24.86 127.86,25.96 C126.56,27.07 122.01,30.69 117.75,34.01 C110.63,39.55 108.54,42.00 110.93,42.00 C111.44,42.00 112.53,41.33 113.36,40.50 ZM 78.92 34.63 C86.94,26.73 96.20,18.51 99.50,16.36 C107.09,11.43 116.97,7.00 120.38,7.00 C121.82,7.00 123.00,6.49 123.00,5.86 C123.00,4.45 113.66,5.54 113.17,7.01 C112.98,7.56 111.92,8.00 110.81,8.00 C105.32,8.00 96.34,14.71 79.02,31.73 C69.39,41.20 62.14,48.97 62.92,48.98 C63.71,48.99 70.91,42.53 78.92,34.63 ZM 11.00 33.03 L 11.00 33.03 C14.13,30.08 12.30,32.93 7.31,38.50 C4.33,41.83 1.47,44.57 0.65,44.89 C0.71,44.61 0.78,44.41 0.85,44.29 C0.99,44.23 1.14,44.13 1.29,44.01 L 1.29 44.01 C1.86,43.63 2.60,42.74 3.10,41.82 C4.04,40.05 3.92,39.89 2.09,40.47 C1.83,40.55 1.59,40.61 1.37,40.65 C0.89,40.67 0.58,40.38 0.37,39.21 C0.53,39.08 0.72,39.00 0.93,39.00 C0.99,39.00 1.04,39.00 1.09,39.01 C1.14,39.01 1.18,39.01 1.23,39.01 C2.01,39.01 2.78,38.14 17.98,22.11 C25.39,14.30 32.59,6.13 33.98,3.96 C36.56,-0.08 39.43,-1.40 38.79,1.75 C38.63,2.51 38.14,3.02 37.46,3.17 C37.61,2.51 37.28,2.34 36.45,2.66 C36.10,2.79 35.79,2.99 35.54,3.21 C35.34,3.29 35.23,3.42 35.18,3.60 C35.07,3.78 35.00,3.95 35.00,4.11 C35.00,4.47 35.11,4.71 35.28,4.85 C35.16,5.78 34.53,7.23 33.66,8.50 C30.65,12.90 20.35,23.75 16.72,26.57 C16.80,26.22 16.73,26.00 16.46,26.00 C16.25,26.00 14.94,27.05 13.25,28.53 C12.23,29.34 11.05,30.44 10.00,31.54 C7.52,34.00 6.52,35.57 7.31,35.62 C7.53,35.71 7.93,35.59 8.42,35.29 C8.59,35.21 8.79,35.11 9.00,35.00 C10.10,34.41 11.00,33.53 11.00,33.03 ZM 19.00 151.88 C19.00,150.77 19.39,149.11 19.87,148.18 C21.64,144.73 22.08,136.49 20.60,134.46 C19.22,132.57 19.15,132.59 18.20,135.01 C14.86,143.49 13.49,146.13 11.37,148.12 C10.07,149.35 9.00,151.17 9.00,152.17 C9.00,154.40 9.41,154.43 12.48,152.42 C14.73,150.95 14.97,150.98 16.14,152.86 C17.61,155.21 19.00,154.74 19.00,151.88 ZM 143.50 37.00 C144.50,35.90 145.90,35.00 146.63,35.00 C147.36,35.00 148.69,33.88 149.59,32.50 C150.49,31.12 151.62,30.00 152.10,30.00 C153.93,30.00 164.16,22.17 166.53,18.96 C170.06,14.17 169.89,11.92 166.15,13.92 C163.92,15.11 151.00,28.15 151.00,29.20 C151.00,29.64 150.30,30.00 149.44,30.00 C147.77,30.00 139.00,36.90 139.00,38.21 C139.00,39.72 141.70,38.99 143.50,37.00 ZM 41.25 80.34 C40.56,80.06 40.00,79.46 40.00,79.00 C40.00,77.38 55.83,65.00 57.90,65.00 C60.54,65.00 60.52,65.45 57.78,69.35 C55.09,73.18 54.59,73.68 49.36,77.76 C45.33,80.91 43.84,81.38 41.25,80.34 ZM 41.31 129.54 C42.21,128.65 42.60,127.11 42.26,125.77 C41.96,124.52 42.03,123.80 42.44,124.17 C43.55,125.18 48.00,120.90 48.00,118.82 C48.00,116.46 46.86,116.52 43.95,119.05 C42.65,120.17 40.15,121.98 38.38,123.07 C36.62,124.16 34.74,126.30 34.21,127.83 C33.29,130.48 33.39,130.62 36.52,130.83 C38.38,130.95 40.46,130.40 41.31,129.54 ZM 81.90 171.52 C80.03,170.16 77.49,168.51 76.25,167.86 C75.01,167.21 74.00,166.02 74.00,165.22 C74.00,164.05 75.13,163.85 79.52,164.21 C85.66,164.72 87.91,166.60 87.97,171.25 C88.01,174.69 86.35,174.77 81.90,171.52 ZM 20.93 124.66 C20.66,115.68 19.92,111.52 18.89,113.15 C17.90,114.71 17.68,130.35 18.64,131.31 C20.22,132.89 21.10,130.33 20.93,124.66 ZM 121.36 161.38 C120.99,160.35 120.47,159.09 120.19,158.60 C119.92,158.10 120.16,157.98 120.73,158.33 C122.49,159.42 124.14,156.40 123.40,153.45 C122.90,151.48 123.04,150.91 123.87,151.42 C124.51,151.81 124.77,152.56 124.46,153.07 C124.14,153.58 124.36,154.00 124.94,154.00 C126.72,154.00 126.12,158.56 124.02,160.98 C122.14,163.14 122.00,163.16 121.36,161.38 ZM 47.19 112.16 C47.91,111.15 49.51,109.78 50.75,109.12 C51.99,108.47 53.00,107.50 53.00,106.96 C53.00,105.37 49.98,105.88 49.33,107.58 C49.00,108.44 47.66,109.56 46.36,110.05 C45.06,110.55 44.00,111.64 44.00,112.48 C44.00,114.55 45.61,114.39 47.19,112.16 ZM 64.82 147.25 C65.05,145.61 64.64,145.00 63.27,145.00 C61.07,145.00 59.00,146.83 59.00,148.77 C59.00,149.67 59.94,150.02 61.75,149.82 C63.72,149.59 64.59,148.86 64.82,147.25 ZM 105.44 41.06 C107.30,39.01 106.82,37.00 104.48,37.00 C102.80,37.00 100.65,40.63 101.51,42.02 C102.42,43.48 103.49,43.22 105.44,41.06 ZM 129.25 21.01 C130.21,21.01 131.00,20.33 131.00,19.50 C131.00,17.76 127.77,17.52 124.93,19.04 C122.24,20.48 122.47,22.38 125.25,21.63 C126.49,21.30 128.29,21.02 129.25,21.01 ZM 30.15 144.48 C29.29,139.53 26.00,139.08 26.00,143.92 C26.00,146.20 26.42,146.70 28.25,146.60 C29.91,146.50 30.41,145.95 30.15,144.48 ZM 100.00 55.14 C100.00,54.66 101.34,52.75 102.98,50.89 C104.63,49.02 105.98,47.16 105.98,46.74 C106.01,45.30 102.36,48.26 100.18,51.44 C97.77,54.96 97.50,56.00 99.00,56.00 C99.55,56.00 100.00,55.61 100.00,55.14 ZM 12.05 46.43 C13.27,44.97 18.22,42.00 19.45,42.00 C20.93,42.00 19.65,43.73 16.68,45.75 C12.69,48.46 10.04,48.86 12.05,46.43 ZM 111.96 34.05 C112.73,32.98 113.84,32.38 114.43,32.71 C115.02,33.05 115.17,32.96 114.77,32.51 C114.36,32.06 114.81,31.11 115.77,30.38 C117.29,29.22 117.30,29.06 115.90,29.03 C114.08,29.00 109.00,33.36 109.00,34.95 C109.00,36.61 110.43,36.18 111.96,34.05 ZM 34.00 30.61 C34.00,29.12 38.95,24.62 39.73,25.40 C40.51,26.18 37.99,29.93 35.98,31.01 C34.43,31.84 34.00,31.75 34.00,30.61 ZM 112.43 166.89 C111.63,165.60 113.71,164.04 116.25,164.02 C118.37,164.00 118.46,164.68 116.57,166.57 C114.86,168.28 113.36,168.40 112.43,166.89 ZM 162.02 13.48 C162.72,12.64 163.00,11.66 162.65,11.31 C161.78,10.45 157.00,12.70 157.00,13.98 C157.00,15.55 160.60,15.19 162.02,13.48 ZM 187.00 157.68 C187.00,156.02 189.04,154.00 190.70,154.00 C192.94,154.00 192.12,156.63 189.50,157.82 C187.54,158.71 187.00,158.68 187.00,157.68 ZM 61.61 2.42 C60.90,0.57 60.79,0.13 62.13,0.03 C63.01,0.03 63.85,0.04 64.66,0.04 C66.38,0.21 66.27,0.87 64.57,2.57 C62.76,4.39 62.35,4.36 61.61,2.42 ZM 124.56 50.58 C125.62,49.80 126.16,48.83 125.75,48.41 C124.89,47.56 120.00,49.90 120.00,51.17 C120.00,52.46 122.41,52.15 124.56,50.58 ZM 26.61 35.58 C27.19,34.06 29.96,32.63 30.77,33.43 C31.83,34.50 29.93,37.00 28.06,37.00 C26.74,37.00 26.25,36.52 26.61,35.58 ZM 56.09 56.21 C58.74,53.12 59.48,51.59 57.90,52.50 C55.53,53.86 53.00,56.27 53.00,57.15 C53.00,58.56 54.46,58.11 56.09,56.21 ZM 85.00 50.00 C85.82,48.46 85.76,48.00 84.74,48.00 C83.27,48.00 81.00,49.94 81.00,51.20 C81.00,52.82 83.96,51.94 85.00,50.00 ZM 35.67 84.33 C35.26,83.93 33.85,84.76 32.52,86.19 C29.40,89.56 30.44,90.60 33.81,87.48 C35.24,86.15 36.07,84.74 35.67,84.33 ZM 47.42 63.39 C48.29,63.06 49.00,62.16 49.00,61.39 C49.00,59.68 47.80,59.60 46.20,61.20 C44.02,63.38 44.62,64.47 47.42,63.39 ZM 93.06 42.88 C93.62,41.85 93.75,41.00 93.36,41.00 C92.35,41.00 89.00,44.16 89.00,45.12 C89.00,46.52 92.00,44.86 93.06,42.88 ZM 41.02 68.48 C41.72,67.64 42.01,66.67 41.67,66.33 C40.94,65.61 38.00,67.84 38.00,69.12 C38.00,70.50 39.63,70.15 41.02,68.48 ZM 90.41 174.62 C89.57,172.45 90.16,171.86 92.02,173.01 C93.16,173.72 93.22,174.18 92.27,175.13 C91.33,176.07 90.92,175.96 90.41,174.62 ZM 131.10 45.38 C132.26,43.99 132.18,43.82 130.55,44.13 C129.51,44.34 128.48,45.06 128.25,45.75 C127.66,47.53 129.51,47.30 131.10,45.38 ZM 32.39 75.42 C33.33,72.97 33.13,72.65 31.50,74.00 C29.84,75.38 29.51,77.00 30.89,77.00 C31.38,77.00 32.06,76.29 32.39,75.42 ZM 176.23 139.81 C176.85,137.96 179.00,137.65 179.00,139.42 C179.00,140.29 178.29,141.00 177.42,141.00 C176.55,141.00 176.01,140.47 176.23,139.81 ZM 19.00 86.00 C19.00,84.62 16.25,85.92 15.60,87.60 C15.15,88.76 15.44,88.84 17.02,87.99 C18.11,87.41 19.00,86.51 19.00,86.00 ZM 117.00 54.89 C117.00,54.40 116.32,54.00 115.50,54.00 C114.68,54.00 114.00,54.66 114.00,55.47 C114.00,56.36 114.59,56.71 115.50,56.36 C116.32,56.05 117.00,55.38 117.00,54.89 ZM 156.00 189.94 C156.00,188.81 156.45,188.16 157.00,188.50 C157.55,188.84 158.00,189.77 158.00,190.56 C158.00,191.35 157.55,192.00 157.00,192.00 C156.45,192.00 156.00,191.07 156.00,189.94 ZM 18.00 158.50 C18.00,157.68 17.55,157.00 17.00,157.00 C16.45,157.00 16.00,157.68 16.00,158.50 C16.00,159.32 16.45,160.00 17.00,160.00 C17.55,160.00 18.00,159.32 18.00,158.50 ZM 46.50 51.00 C46.84,50.45 46.44,50.00 45.62,50.00 C44.79,50.00 43.84,50.45 43.50,51.00 C43.16,51.55 43.56,52.00 44.38,52.00 C45.21,52.00 46.16,51.55 46.50,51.00 ZM 1.50 54.00 C0.93,54.00 0.43,53.78 0.17,53.47 C0.18,53.14 0.18,52.83 0.18,52.52 C0.44,52.21 0.93,52.00 1.50,52.00 C2.33,52.00 3.00,52.45 3.00,53.00 C3.00,53.55 2.33,54.00 1.50,54.00 ZM 108.50 30.00 C108.84,29.45 108.42,29.00 107.56,29.00 C106.70,29.00 106.00,29.45 106.00,30.00 C106.00,30.55 106.42,31.00 106.94,31.00 C107.46,31.00 108.16,30.55 108.50,30.00 ZM 107.08 133.83 C112.56,133.59 117.04,133.18 119.07,132.59 C116.79,133.43 114.05,133.78 107.08,133.83 ZM 123.43 130.44 C125.49,129.09 127.17,127.44 128.58,125.36 C127.16,127.46 125.50,129.10 123.43,130.44 Z" fill="rgb(243,186,188)"/>
<path d="M 70.00 132.33 C65.15,130.25 61.22,126.28 58.98,121.22 C57.31,117.44 57.08,114.29 57.04,94.47 C57.01,80.12 57.36,72.00 58.00,72.00 C58.55,72.00 59.00,71.34 59.00,70.53 C59.00,68.52 64.69,62.21 68.10,60.45 C70.31,59.30 75.86,59.00 94.56,59.00 C121.87,59.00 123.13,59.33 128.82,68.02 L 132.00 72.88 L 132.00 95.98 C132.00,116.72 131.81,119.46 130.10,122.79 C127.69,127.49 124.54,130.38 119.63,132.40 C114.17,134.65 75.27,134.60 70.00,132.33 ZM 106.87 111.82 C110.54,108.24 114.00,101.73 114.00,98.43 C114.00,92.44 108.16,84.63 102.80,83.46 C101.11,83.08 99.99,82.18 99.98,81.17 C99.98,80.25 99.55,78.84 99.05,78.04 C98.25,76.79 97.84,76.84 96.11,78.40 C94.16,80.17 94.02,80.16 91.41,78.11 C87.89,75.34 79.99,75.09 80.02,77.75 C80.03,78.71 80.89,80.60 81.93,81.95 C83.81,84.40 83.81,84.41 80.51,88.26 C74.30,95.52 75.06,102.86 82.90,111.25 L 86.41 115.00 L 95.01 115.00 C103.34,115.00 103.73,114.90 106.87,111.82 Z" fill="rgb(253,252,252)"/>
</g>
</svg>