<svg width="512" height="512" viewBox="0 0 512 512" xmlns="http://www.w3.org/2000/svg">
  <rect width="512" height="512" rx="104" fill="#081724"/>
  <rect x="36" y="36" width="440" height="440" rx="82" fill="none" stroke="#FFFFFF" stroke-opacity="0.08" stroke-width="4"/>
  <g transform="translate(256 256) scale(0.825)">
    <polygon points="-44,-174 -2,-150 -2,-102 -44,-78 -86,-102 -86,-150" fill="#31BBD7"/>
    <polygon points="44,-174 86,-150 86,-102 44,-78 2,-102 2,-150" fill="#1785B5"/>
    <polygon points="-136,-96 -94,-72 -94,-24 -136,0 -178,-24 -178,-72" fill="#28ABD0"/>
    <polygon points="0,-96 42,-72 42,-24 0,0 -42,-24 -42,-72" fill="#32BCD8"/>
    <polygon points="136,-96 178,-72 178,-24 136,0 94,-24 94,-72" fill="#187FAE"/>
    <polygon points="-44,18 -2,42 -2,90 -44,114 -86,90 -86,42" fill="#1E93C3"/>
    <polygon points="44,18 86,42 86,90 44,114 2,90 2,42" fill="#1A83B4"/>
  </g>
</svg>